<svg xmlns="http://www.w3.org/2000/svg" width="92" height="100" viewBox="0 0 92 100" fill="none">
<path d="M91.8332 50C91.8332 54.3417 91.1915 58.5208 90.0623 62.5H81.3082C82.704 58.5833 83.4998 54.3875 83.4998 50C83.4998 29.325 66.679 12.5 45.9998 12.5C38.8915 12.5 32.2665 14.5167 26.604 17.975L34.3457 29.1667H5.204L14.1707 0L21.8748 11.1375C28.8915 6.76667 37.1207 4.16667 45.9998 4.16667C71.3082 4.16667 91.8332 24.6875 91.8332 50ZM65.3582 82.05C59.704 85.4917 53.0915 87.5 45.9998 87.5C25.3248 87.5 8.49984 70.675 8.49984 50C8.49984 45.6125 9.29567 41.4167 10.6873 37.5H1.93734C0.80817 41.4792 0.166504 45.6583 0.166504 50C0.166504 75.3125 20.6873 95.8333 45.9998 95.8333C54.8623 95.8333 63.079 93.2458 70.0832 88.8875L77.804 100L86.7707 70.8792H57.629L65.3582 82.05Z" fill="#6831FF"/>
</svg>