<svg width="24" height="24" viewBox="0 0 24 24" fill="none" xmlns="http://www.w3.org/2000/svg">
<path d="M10.978 14.999V18.25C10.978 18.662 10.643 19 10.226 19C10.038 19 9.851 18.929 9.708 18.794C7.933 17.109 4.763 14.102 3.312 12.725C3.112 12.536 3 12.273 3 12C3 11.726 3.112 11.464 3.312 11.275C4.763 9.898 7.933 6.89 9.708 5.207C9.851 5.071 10.038 5 10.226 5C10.643 5 10.978 5.337 10.978 5.75V9.001H19.998C20.529 9.001 21 9.471 21 10.001V13.999C21 14.529 20.529 14.999 19.998 14.999H10.978ZM9.478 7.493L4.727 12L9.478 16.507V13.499H19.5V10.501H9.478V7.493Z" fill="#333333"/>
</svg>
