<svg xmlns="http://www.w3.org/2000/svg" width="100" height="100" viewBox="0 0 100 100" fill="none">
<g clip-path="url(#clip0_8_180)">
<path d="M41.6667 83.3333V58.3333L62.5 70.8333L41.6667 83.3333ZM100 18.2292L99.9667 18.0542L95.7667 0L7.5625 17.4833C3.17083 18.3542 0 22.2083 0 26.6792V87.5C0 94.4042 5.59583 100 12.5 100H87.5C94.4 100 100 94.4042 100 87.5V29.1667H46.9417L100 18.2292ZM83.7917 7.32083L93.775 14.0042L81.3 16.4833L71.3083 9.79583L83.7917 7.32083ZM59.2208 12.1917L69.2167 18.8833L56.7458 21.3625L46.7375 14.6667L59.2208 12.1917ZM34.6167 17.0708L44.6292 23.7708L32.1583 26.25L22.1333 19.5417L34.6167 17.0708ZM45.1917 33.3333L36.6958 41.6667H23.9708L32.4667 33.3333H45.1917ZM82.6 33.3333H95.325L86.8333 41.6667H74.1042L82.6 33.3333ZM57.55 33.3333H70.2708L61.775 41.6667H49.0542L57.55 33.3333ZM91.6667 50V86.4583C91.6667 89.3333 89.3333 91.6667 86.4583 91.6667H13.5417C10.6667 91.6667 8.33333 89.3333 8.33333 86.4583V50H91.6667Z" fill="#333333"/>
</g>
<defs>
<clipPath id="clip0_8_180">
<rect width="100" height="100" fill="white"/>
</clipPath>
</defs>
</svg>